<?xml version="1.0" encoding="utf-8"?>
<!-- Generator: Adobe Illustrator 23.0.1, SVG Export Plug-In . SVG Version: 6.00 Build 0)  -->
<svg version="1.1" id="Layer_1" xmlns="http://www.w3.org/2000/svg" xmlns:xlink="http://www.w3.org/1999/xlink" x="0px" y="0px"
	 viewBox="0 0 4000 4000" style="enable-background:new 0 0 4000 4000;" xml:space="preserve">
<style type="text/css">
	.st0{fill:#027A6C;}
	.st1{fill:#F15B2A;}
</style>
<path class="st0" d="M2655.2,3742.81H1430.76c-175.71,0-318.13-142.43-318.13-318.13v-459.6h0.17
	c108.57,0,196.58,88.01,196.58,196.58v263.08c0,66.04,53.54,119.58,119.58,119.58h1226.38c66.01,0,119.52-53.53,119.52-119.53
	v-263.13c0-108.57,88.03-196.58,196.59-196.58h1.84v459.66C2973.28,3600.41,2830.87,3742.81,2655.2,3742.81"/>
<path class="st0" d="M1430.71,328.12h1224.72c175.61,0,317.97,142.36,317.97,317.95v459.91c-108.57,0-196.58-87.99-196.58-196.56
	V646.23c0-66.07-53.56-119.64-119.63-119.64H1430.76c-65.96,0-119.42,53.46-119.42,119.42v263.42
	c0,108.57-88.01,196.56-196.58,196.56h-2.14V646.23C1112.62,470.54,1255.03,328.12,1430.71,328.12"/>
<path class="st0" d="M3926.94,1422.35v1224.35c0,175.84-142.54,318.38-318.38,318.38h-459.34v-0.15
	c0-108.57,88.03-196.58,196.59-196.58h262.75c66.5,0,119.68-55.21,119.68-121.38V1422.35c0-66.21-53.18-119.39-119.68-119.39
	h-262.75c-108.57,0-196.59-88.02-196.59-196.58v-1.88h459.87C3784.63,1104.49,3926.94,1246.8,3926.94,1422.35"/>
<path class="st0" d="M473.66,1104.48h459.82v1.89c0,108.57-88.01,196.58-196.58,196.58H473.99c-66.09,0-119.67,53.56-119.67,119.66
	v1224.36c0,66.76,54.61,121.38,121.38,121.38h261.2c108.57,0,196.58,88.01,196.58,196.58v0.15H473.99
	c-175.74,0-318.18-142.46-318.18-318.18V1422.34C155.8,1246.81,298.11,1104.48,473.66,1104.48"/>
<path class="st1" d="M1277.97,2632.45c115.59,71.86,242.21,107.81,379.62,107.81c68.75-3.13,135.24-13.29,199.26-30.5
	c64.04-17.17,119.58-46.13,166.43-86.66c56.19,46.85,118.68,78.08,187.42,93.68c68.87,15.64,139.02,23.48,210.92,23.48
	c134.43-6.3,257.04-45.32,367.89-117.17c111.08-71.95,166.57-214.11,166.57-426.55v-567.85v-163.33h-163.44l-0.12,0.02
	c-0.05,0-0.29-0.02-0.48-0.02c-90.21,0-163.31,72.88-163.75,163.01l-0.36,0.32v633.46c0,75-21.9,129.63-65.68,164.08
	c-43.71,34.32-93.72,51.52-149.99,51.52c-56.22,0-107.04-17.2-152.34-51.52c-45.27-34.45-68-89.08-68-164.08v-65.61v-731.18h-135.5
	c-103.76,0-187.88,84.11-187.88,187.86v543.32v65.61c0,75-22.65,129.63-68,164.08c-45.31,34.32-96.02,51.52-152.38,51.52
	c-56.24,0-107.04-17.2-152.26-51.52c-45.19-34.45-68-89.08-68-164.08v-637.48c0-46.84-14.82-85.17-44.48-114.82
	c-29.7-29.76-67.98-44.49-114.9-44.49h-163.97v731.18C1104.57,2415.25,1162.48,2560.51,1277.97,2632.45"/>
</svg>
